<?xml version="1.0" encoding="utf-8"?>
<!-- Generator: Adobe Illustrator 23.0.3, SVG Export Plug-In . SVG Version: 6.00 Build 0)  -->
<svg version="1.1" id="Слой_1" xmlns="http://www.w3.org/2000/svg" xmlns:xlink="http://www.w3.org/1999/xlink" x="0px" y="0px"
	 viewBox="0 0 52 52" style="enable-background:new 0 0 52 52;" xml:space="preserve">
<style type="text/css">
	.st0{fill:#FFFFFF;}
</style>
<path class="st0" d="M26,0C11.6,0,0,11.6,0,26s11.6,26,26,26s26-11.6,26-26S40.4,0,26,0z M41,17.8L41,17.8L22.1,37.5
	c-0.2,0.2-0.5,0.4-0.8,0.4s-0.7-0.1-0.8-0.4l-9.2-9.9L11,27.3c-0.2-0.2-0.4-0.6-0.4-0.8s0.1-0.6,0.4-0.8l1.7-1.7
	c0.5-0.5,1.2-0.5,1.7,0l0.1,0.1l6.5,7c0.2,0.2,0.6,0.2,0.8,0l15.8-16.4h0.1c0.5-0.5,1.2-0.5,1.7,0l1.7,1.7
	C41.5,16.7,41.5,17.4,41,17.8z"/>
</svg>
